<svg xmlns="http://www.w3.org/2000/svg" width="209" height="209" overflow="visible"><circle fill="none" stroke="#C1C1C1" stroke-width="2" cx="104.5" cy="104.5" r="69.804"/><path fill="#FFF" stroke="#FFF" d="M98.862 70.203c-1.437 1.077-2.784 2.364-4.04 3.86 1.216.758 2.244 1.591 3.082 2.5.838.908 1.511 1.831 2.02 2.768.509.938.873 1.866 1.092 2.783.22.918.33 1.766.33 2.544 0 1.955-.369 3.656-1.107 5.103-.738 1.446-1.71 2.649-2.918 3.607-1.207.957-2.593 1.67-4.159 2.139a16.866 16.866 0 0 1-4.864.704c-1.875 0-3.721-.209-5.536-.628a88.509 88.509 0 0 1-2.724 5.297 53.239 53.239 0 0 1-3.187 5.043 39.06 39.06 0 0 1-3.741 4.489 25.288 25.288 0 0 1-4.34 3.591 20.908 20.908 0 0 1-5.012 2.38c-1.796.578-3.711.867-5.746.867-1.976 0-3.801-.32-5.478-.958-1.676-.638-3.122-1.57-4.339-2.798-1.217-1.228-2.165-2.725-2.843-4.489-.678-1.765-1.017-3.785-1.017-6.06 0-2.953.503-5.796 1.511-8.529a30.395 30.395 0 0 1 4.16-7.662 35.696 35.696 0 0 1 6.24-6.464 42.064 42.064 0 0 1 7.751-4.969 43.036 43.036 0 0 1 8.709-3.202 37.395 37.395 0 0 1 9.098-1.137c2.375 0 4.484.194 6.33.583 1.845.39 3.477.903 4.893 1.542a28.356 28.356 0 0 1 2.514-1.96 19.808 19.808 0 0 1 2.843-1.631l.478.687zM80.246 93.098a253.887 253.887 0 0 1 2.724-5.522 96.41 96.41 0 0 1 2.739-5.028 56.468 56.468 0 0 1 2.888-4.459 32.619 32.619 0 0 1 3.233-3.845 20.032 20.032 0 0 0-4.295-1.137 32.44 32.44 0 0 0-4.953-.359c-2.414 0-4.779.29-7.093.868-2.314.579-4.544 1.372-6.689 2.379s-4.19 2.2-6.135 3.576a45.555 45.555 0 0 0-5.417 4.489c-1.666 1.617-3.172 3.307-4.519 5.073s-2.494 3.547-3.441 5.342c-.948 1.795-1.676 3.566-2.185 5.312-.509 1.746-.763 3.407-.763 4.983 0 1.536.279 2.968.838 4.294a10.611 10.611 0 0 0 2.319 3.458c.987.977 2.165 1.746 3.531 2.305s2.868.838 4.504.838c2.534 0 4.809-.499 6.823-1.497s3.88-2.419 5.597-4.266c1.716-1.846 3.342-4.064 4.878-6.659 1.536-2.593 3.103-5.487 4.699-8.679-2.075-.818-4-1.865-5.776-3.143l.479-.838c.958.479 1.931.933 2.918 1.362.987.43 2.019.814 3.096 1.153zm17.957-10.146c0-1.775-.383-3.292-1.152-4.548-.768-1.257-1.84-2.305-3.216-3.143-1.816 2.354-3.547 5.093-5.193 8.215-1.646 3.122-3.347 6.599-5.103 10.431a20.528 20.528 0 0 0 3.501.299 11.45 11.45 0 0 0 4.295-.808 10.803 10.803 0 0 0 3.546-2.29c1.017-.987 1.826-2.17 2.424-3.546.598-1.377.898-2.914.898-4.61zm6.494 11.073a59.432 59.432 0 0 1-1.092 2.05c-.469.848-.973 1.776-1.511 2.783-.539 1.008-1.087 2.065-1.646 3.173s-1.063 2.185-1.511 3.231a28.726 28.726 0 0 0-1.092 2.949c-.279.918-.419 1.695-.419 2.333 0 .578.119.973.359 1.183.24.21.579.313 1.018.313.818 0 1.616-.269 2.394-.808s1.552-1.241 2.319-2.108a26.659 26.659 0 0 0 2.26-2.979 510.634 510.634 0 0 0 2.215-3.382l1.077.838a83.35 83.35 0 0 1-1.96 3.322 23.527 23.527 0 0 1-2.439 3.277 13.198 13.198 0 0 1-2.963 2.499 6.637 6.637 0 0 1-3.531.987c-1.198 0-2.115-.358-2.753-1.077-.639-.719-.958-1.646-.958-2.782 0-1.337.31-2.733.928-4.191a28.016 28.016 0 0 1 2.319-4.324 45.131 45.131 0 0 1 3.022-4.115 306.762 306.762 0 0 1 3.008-3.591l.956.419zm5.597-6.644c0 .399-.1.813-.3 1.242a4.55 4.55 0 0 1-.762 1.152 4.346 4.346 0 0 1-1.032.837c-.381.22-.759.33-1.137.33-.339 0-.6-.125-.778-.374-.18-.249-.269-.554-.269-.913 0-.319.06-.698.18-1.138.12-.438.3-.852.539-1.242.24-.389.528-.723.868-1.002a1.787 1.787 0 0 1 1.167-.419c.419 0 .778.16 1.077.479.297.32.447.669.447 1.048z"/><path fill="#FFF" stroke="#FFF" d="M132.979 98.395c0 .858-.151 1.731-.449 2.619a19.146 19.146 0 0 1-1.137 2.664 46.01 46.01 0 0 1-1.467 2.618c-.521.859-1.009 1.685-1.467 2.484a19.43 19.43 0 0 0-1.138 2.29c-.3.728-.449 1.391-.449 1.99 0 .458.1.769.3.928.199.159.418.239.657.239.759 0 1.606-.374 2.546-1.121.937-.748 1.889-1.69 2.857-2.829.968-1.138 1.931-2.375 2.888-3.712s1.826-2.603 2.604-3.8l1.077.838c-.159.239-.449.713-.867 1.422-.42.708-.938 1.515-1.557 2.423s-1.313 1.855-2.079 2.843a24.255 24.255 0 0 1-2.47 2.724 14.707 14.707 0 0 1-2.709 2.05c-.928.539-1.859.808-2.798.808-.539 0-1.027-.09-1.467-.269a3.274 3.274 0 0 1-1.122-.749 3.604 3.604 0 0 1-.733-1.121 3.486 3.486 0 0 1-.269-1.361c0-.778.175-1.623.524-2.529.349-.907.782-1.841 1.301-2.798a46.525 46.525 0 0 1 1.707-2.888 96.506 96.506 0 0 0 1.707-2.768c.52-.878.951-1.691 1.302-2.439.349-.748.522-1.392.522-1.931 0-.619-.163-1.137-.494-1.556-.328-.419-.793-.628-1.393-.628-.637 0-1.377.265-2.215.793-.838.528-1.775 1.302-2.813 2.319-1.038 1.017-2.17 2.27-3.397 3.756s-2.558 3.177-3.995 5.071a324.349 324.349 0 0 1-2.394 3.174c-.34.438-.679.888-1.019 1.346-.339.46-.678.914-1.017 1.362-.341.448-.659.878-.958 1.286-.3.409-.568.764-.808 1.063l-2.634-1.078 3.502-4.817a57.975 57.975 0 0 0 1.526-2.186 75.277 75.277 0 0 0 1.54-2.409c.51-.828.993-1.661 1.452-2.499.46-.838.889-1.656 1.287-2.454.578-1.197.977-2.189 1.197-2.978.219-.788.328-1.422.328-1.9 0-.539-.099-.893-.298-1.063-.2-.169-.479-.254-.838-.254-.38 0-.813.194-1.303.583-.488.389-.992.888-1.511 1.497a25.444 25.444 0 0 0-1.57 2.065 74.32 74.32 0 0 0-1.51 2.289c-.479.758-.928 1.477-1.347 2.155s-.769 1.228-1.047 1.646l-1.078-.837a552.891 552.891 0 0 0 2.769-4.385c.828-1.327 1.625-2.468 2.394-3.426.769-.958 1.516-1.701 2.244-2.229.728-.529 1.502-.793 2.319-.793a3.132 3.132 0 0 1 2.35 1.062c.309.349.553.773.732 1.272s.27 1.078.27 1.736c0 .519-.062 1.058-.181 1.616.877-.858 1.695-1.566 2.454-2.125a15.829 15.829 0 0 1 2.095-1.332c.639-.33 1.228-.564 1.766-.704a5.863 5.863 0 0 1 1.467-.209c.379 0 .817.07 1.315.209s.968.399 1.407.778c.438.379.812.903 1.121 1.571.315.668.471 1.53.471 2.588z"/><path fill="#FFF" stroke="#FFF" d="M150.127 112.856a16.37 16.37 0 0 1-3.218 1.69c-1.107.429-2.17.643-3.187.643-.759 0-1.516-.108-2.274-.328s-1.446-.584-2.064-1.093c-.618-.508-1.123-1.181-1.511-2.019-.389-.838-.584-1.876-.584-3.113 0-1.496.269-2.933.809-4.309a16.002 16.002 0 0 1 2.154-3.845 20.25 20.25 0 0 1 3.082-3.248 23.167 23.167 0 0 1 3.577-2.499 19.181 19.181 0 0 1 3.665-1.602c1.218-.379 2.325-.568 3.322-.568.977 0 1.81.104 2.499.314.688.209 1.272.468 1.751.778.479.309.858.643 1.138 1.002.279.359.509.698.689 1.017l1.616-2.125.987.658c0 .02-.159.334-.479.943s-.739 1.422-1.257 2.439a723.752 723.752 0 0 0-1.811 3.576 370.948 370.948 0 0 0-4.429 9.113 236.085 236.085 0 0 0-2.199 4.818c1.816-1.038 3.412-2.036 4.788-2.993a38.032 38.032 0 0 0 3.695-2.903 28.893 28.893 0 0 0 2.948-3.053 39.489 39.489 0 0 0 2.545-3.441l1.106.838a30.478 30.478 0 0 1-2.587 3.605 29.942 29.942 0 0 1-3.263 3.291c-1.247 1.087-2.704 2.206-4.369 3.352-1.667 1.147-3.646 2.411-5.94 3.787-1.896 4.647-3.723 8.493-5.478 11.536-1.756 3.041-3.416 5.452-4.983 7.228-1.565 1.775-3.022 3.022-4.369 3.741s-2.559 1.077-3.637 1.077a6.75 6.75 0 0 1-1.421-.164 3.75 3.75 0 0 1-1.422-.643c-.438-.319-.804-.759-1.092-1.317s-.435-1.276-.435-2.154c0-1.677.443-3.332 1.332-4.969.888-1.636 2.175-3.261 3.861-4.878 1.684-1.616 3.749-3.222 6.194-4.817 2.444-1.596 5.212-3.202 8.305-4.817.38-.859.729-1.671 1.048-2.44.32-.766.619-1.47.898-2.108zm-17.268 26.786c.758 0 1.546-.279 2.363-.837.818-.559 1.647-1.322 2.484-2.29a29.316 29.316 0 0 0 2.483-3.367 74 74 0 0 0 2.425-4.084 88.396 88.396 0 0 0 2.289-4.445 206.88 206.88 0 0 0 2.079-4.459c-2.974 1.556-5.512 3.177-7.616 4.864-2.104 1.685-3.825 3.296-5.162 4.833s-2.309 2.923-2.918 4.159c-.608 1.238-.912 2.188-.912 2.844 0 .817.179 1.485.538 2.005s1.009.777 1.947.777zm18.824-30.078a805.56 805.56 0 0 1 1.602-3.008 108.32 108.32 0 0 1 1.646-2.963c.568-.988 1.176-2 1.824-3.037a62.505 62.505 0 0 1 2.17-3.232 2.99 2.99 0 0 0-.299-.928 3.243 3.243 0 0 0-.658-.883c-.279-.27-.639-.494-1.078-.674-.438-.18-.957-.269-1.557-.269-.679 0-1.452.09-2.319.269-.868.18-1.781.489-2.738.928-.958.438-1.933 1.027-2.918 1.764-.988.738-1.951 1.666-2.89 2.784-1.377 1.636-2.434 3.267-3.173 4.892-.737 1.626-1.106 3.108-1.106 4.446 0 1.296.328 2.278.987 2.947.658.669 1.557 1.003 2.693 1.003 1.198 0 2.47-.37 3.816-1.107 1.349-.737 2.682-1.714 3.998-2.932z"/></svg>