<?xml version="1.0" encoding="utf-8"?>
<!-- Generator: Adobe Illustrator 12.0.0, SVG Export Plug-In . SVG Version: 6.00 Build 51448)  -->
<!DOCTYPE svg PUBLIC "-//W3C//DTD SVG 1.1//EN" "http://www.w3.org/Graphics/SVG/1.1/DTD/svg11.dtd" [
	<!ENTITY ns_svg "http://www.w3.org/2000/svg">
	<!ENTITY ns_xlink "http://www.w3.org/1999/xlink">
]>
<svg  version="1.1" id="Layer_1" xmlns="&ns_svg;" xmlns:xlink="&ns_xlink;" width="209" height="209" viewBox="0 0 209 209"
	 overflow="visible" enable-background="new 0 0 209 209" xml:space="preserve">
<g>
	<circle fill="none" stroke="#C1C1C1" stroke-width="2" cx="104.5" cy="104.5" r="69.804"/>
	<path fill="#FFFFFF" stroke="#FFFFFF" d="M98.862,70.203c-1.437,1.077-2.784,2.364-4.04,3.86c1.216,0.758,2.244,1.591,3.082,2.5
		c0.838,0.908,1.511,1.831,2.02,2.768c0.509,0.938,0.873,1.866,1.092,2.783c0.22,0.918,0.33,1.766,0.33,2.544
		c0,1.955-0.369,3.656-1.107,5.103c-0.738,1.446-1.71,2.649-2.918,3.607c-1.207,0.957-2.593,1.67-4.159,2.139
		c-1.566,0.469-3.188,0.704-4.864,0.704c-1.875,0-3.721-0.209-5.536-0.628c-0.838,1.775-1.746,3.542-2.724,5.297
		c-0.978,1.756-2.04,3.437-3.187,5.043c-1.147,1.604-2.395,3.102-3.741,4.489c-1.347,1.386-2.793,2.584-4.34,3.591
		c-1.545,1.007-3.217,1.8-5.012,2.38c-1.796,0.578-3.711,0.867-5.746,0.867c-1.976,0-3.801-0.32-5.478-0.958
		c-1.676-0.638-3.122-1.57-4.339-2.798c-1.217-1.228-2.165-2.725-2.843-4.489c-0.678-1.765-1.017-3.785-1.017-6.06
		c0-2.953,0.503-5.796,1.511-8.529c1.008-2.734,2.394-5.288,4.16-7.662c1.766-2.374,3.846-4.529,6.24-6.464
		c2.395-1.936,4.978-3.591,7.751-4.969c2.773-1.376,5.676-2.443,8.709-3.202c3.033-0.758,6.065-1.137,9.098-1.137
		c2.375,0,4.484,0.194,6.33,0.583c1.845,0.39,3.477,0.903,4.893,1.542c0.799-0.698,1.636-1.352,2.514-1.96
		c0.878-0.608,1.826-1.152,2.843-1.631L98.862,70.203z M80.246,93.098c0.917-1.916,1.826-3.757,2.724-5.522
		c0.898-1.766,1.81-3.442,2.739-5.028c0.928-1.586,1.891-3.073,2.888-4.459c0.998-1.387,2.075-2.669,3.233-3.845
		c-1.317-0.519-2.749-0.898-4.295-1.137c-1.546-0.239-3.197-0.359-4.953-0.359c-2.414,0-4.779,0.29-7.093,0.868
		c-2.314,0.579-4.544,1.372-6.689,2.379s-4.19,2.2-6.135,3.576c-1.946,1.377-3.751,2.873-5.417,4.489
		c-1.666,1.617-3.172,3.307-4.519,5.073s-2.494,3.547-3.441,5.342c-0.948,1.795-1.676,3.566-2.185,5.312
		c-0.509,1.746-0.763,3.407-0.763,4.983c0,1.536,0.279,2.968,0.838,4.294c0.559,1.328,1.332,2.479,2.319,3.458
		c0.987,0.977,2.165,1.746,3.531,2.305s2.868,0.838,4.504,0.838c2.534,0,4.809-0.499,6.823-1.497s3.88-2.419,5.597-4.266
		c1.716-1.846,3.342-4.064,4.878-6.659c1.536-2.593,3.103-5.487,4.699-8.679c-2.075-0.818-4-1.865-5.776-3.143l0.479-0.838
		c0.958,0.479,1.931,0.933,2.918,1.362C78.137,92.375,79.169,92.759,80.246,93.098z M98.203,82.952c0-1.775-0.383-3.292-1.152-4.548
		c-0.768-1.257-1.84-2.305-3.216-3.143c-1.816,2.354-3.547,5.093-5.193,8.215c-1.646,3.122-3.347,6.599-5.103,10.431
		c0.579,0.1,1.157,0.174,1.735,0.225c0.579,0.05,1.168,0.074,1.766,0.074c1.517,0,2.948-0.269,4.295-0.808
		c1.346-0.539,2.528-1.302,3.546-2.29c1.017-0.987,1.826-2.17,2.424-3.546C97.903,86.185,98.203,84.648,98.203,82.952z"/>
	<path fill="#FFFFFF" stroke="#FFFFFF" d="M104.697,94.025c-0.259,0.519-0.624,1.202-1.092,2.05
		c-0.469,0.848-0.973,1.776-1.511,2.783c-0.539,1.008-1.087,2.065-1.646,3.173s-1.063,2.185-1.511,3.231
		c-0.449,1.048-0.813,2.03-1.092,2.949c-0.279,0.918-0.419,1.695-0.419,2.333c0,0.578,0.119,0.973,0.359,1.183
		c0.24,0.21,0.579,0.313,1.018,0.313c0.818,0,1.616-0.269,2.394-0.808c0.778-0.539,1.552-1.241,2.319-2.108
		c0.768-0.868,1.521-1.86,2.26-2.979c0.737-1.116,1.477-2.245,2.215-3.382l1.077,0.838c-0.578,1.038-1.231,2.145-1.96,3.322
		c-0.729,1.178-1.542,2.27-2.439,3.277c-0.898,1.007-1.886,1.84-2.963,2.499c-1.077,0.659-2.254,0.987-3.531,0.987
		c-1.198,0-2.115-0.358-2.753-1.077c-0.639-0.719-0.958-1.646-0.958-2.782c0-1.337,0.31-2.733,0.928-4.191
		c0.618-1.456,1.391-2.897,2.319-4.324c0.928-1.426,1.935-2.798,3.022-4.115c1.088-1.317,2.09-2.514,3.008-3.591L104.697,94.025z
		 M110.294,87.381c0,0.399-0.1,0.813-0.3,1.242c-0.199,0.429-0.454,0.813-0.762,1.152c-0.311,0.339-0.654,0.619-1.032,0.837
		c-0.381,0.22-0.759,0.33-1.137,0.33c-0.339,0-0.6-0.125-0.778-0.374c-0.18-0.249-0.269-0.554-0.269-0.913
		c0-0.319,0.06-0.698,0.18-1.138c0.12-0.438,0.3-0.852,0.539-1.242c0.24-0.389,0.528-0.723,0.868-1.002
		c0.339-0.279,0.729-0.419,1.167-0.419c0.419,0,0.778,0.16,1.077,0.479C110.144,86.653,110.294,87.002,110.294,87.381z"/>
	<path fill="#FFFFFF" stroke="#FFFFFF" d="M132.979,98.395c0,0.858-0.151,1.731-0.449,2.619c-0.299,0.888-0.679,1.776-1.137,2.664
		c-0.461,0.887-0.948,1.761-1.467,2.618c-0.521,0.859-1.009,1.685-1.467,2.484c-0.46,0.798-0.838,1.562-1.138,2.29
		c-0.3,0.728-0.449,1.391-0.449,1.99c0,0.458,0.1,0.769,0.3,0.928c0.199,0.159,0.418,0.239,0.657,0.239
		c0.759,0,1.606-0.374,2.546-1.121c0.937-0.748,1.889-1.69,2.857-2.829c0.968-1.138,1.931-2.375,2.888-3.712s1.826-2.603,2.604-3.8
		l1.077,0.838c-0.159,0.239-0.449,0.713-0.867,1.422c-0.42,0.708-0.938,1.515-1.557,2.423s-1.313,1.855-2.079,2.843
		c-0.77,0.987-1.593,1.896-2.47,2.724c-0.878,0.829-1.781,1.512-2.709,2.05c-0.928,0.539-1.859,0.808-2.798,0.808
		c-0.539,0-1.027-0.09-1.467-0.269c-0.438-0.18-0.813-0.43-1.122-0.749c-0.309-0.319-0.552-0.692-0.733-1.121
		c-0.18-0.429-0.269-0.884-0.269-1.361c0-0.778,0.175-1.623,0.524-2.529c0.349-0.907,0.782-1.841,1.301-2.798
		c0.521-0.958,1.087-1.921,1.707-2.888c0.618-0.968,1.188-1.891,1.707-2.768c0.52-0.878,0.951-1.691,1.302-2.439
		c0.349-0.748,0.522-1.392,0.522-1.931c0-0.619-0.163-1.137-0.494-1.556c-0.328-0.419-0.793-0.628-1.393-0.628
		c-0.637,0-1.377,0.265-2.215,0.793c-0.838,0.528-1.775,1.302-2.813,2.319c-1.038,1.017-2.17,2.27-3.397,3.756
		s-2.558,3.177-3.995,5.071c-0.818,1.098-1.616,2.156-2.394,3.174c-0.34,0.438-0.679,0.888-1.019,1.346
		c-0.339,0.46-0.678,0.914-1.017,1.362c-0.341,0.448-0.659,0.878-0.958,1.286c-0.3,0.409-0.568,0.764-0.808,1.063l-2.634-1.078
		l3.502-4.817c0.499-0.679,1.007-1.407,1.526-2.186c0.519-0.778,1.032-1.581,1.54-2.409c0.51-0.828,0.993-1.661,1.452-2.499
		c0.46-0.838,0.889-1.656,1.287-2.454c0.578-1.197,0.977-2.189,1.197-2.978c0.219-0.788,0.328-1.422,0.328-1.9
		c0-0.539-0.099-0.893-0.298-1.063c-0.2-0.169-0.479-0.254-0.838-0.254c-0.38,0-0.813,0.194-1.303,0.583
		c-0.488,0.389-0.992,0.888-1.511,1.497c-0.518,0.608-1.041,1.297-1.57,2.065c-0.527,0.768-1.03,1.531-1.51,2.289
		c-0.479,0.758-0.928,1.477-1.347,2.155s-0.769,1.228-1.047,1.646l-1.078-0.837c1.018-1.596,1.94-3.058,2.769-4.385
		c0.828-1.327,1.625-2.468,2.394-3.426c0.769-0.958,1.516-1.701,2.244-2.229c0.728-0.529,1.502-0.793,2.319-0.793
		c0.438,0,0.862,0.089,1.272,0.269c0.409,0.18,0.769,0.444,1.078,0.793c0.309,0.349,0.553,0.773,0.732,1.272s0.27,1.078,0.27,1.736
		c0,0.519-0.062,1.058-0.181,1.616c0.877-0.858,1.695-1.566,2.454-2.125c0.758-0.559,1.456-1.002,2.095-1.332
		c0.639-0.33,1.228-0.564,1.766-0.704c0.537-0.14,1.027-0.209,1.467-0.209c0.379,0,0.817,0.07,1.315,0.209s0.968,0.399,1.407,0.778
		c0.438,0.379,0.812,0.903,1.121,1.571C132.823,96.475,132.979,97.337,132.979,98.395z"/>
	<path fill="#FFFFFF" stroke="#FFFFFF" d="M150.127,112.856c-1.038,0.697-2.11,1.261-3.218,1.69
		c-1.107,0.429-2.17,0.643-3.187,0.643c-0.759,0-1.516-0.108-2.274-0.328s-1.446-0.584-2.064-1.093
		c-0.618-0.508-1.123-1.181-1.511-2.019c-0.389-0.838-0.584-1.876-0.584-3.113c0-1.496,0.269-2.933,0.809-4.309
		c0.538-1.377,1.257-2.659,2.154-3.845c0.897-1.187,1.927-2.27,3.082-3.248c1.158-0.977,2.352-1.81,3.577-2.499
		c1.227-0.688,2.447-1.222,3.665-1.602c1.218-0.379,2.325-0.568,3.322-0.568c0.977,0,1.81,0.104,2.499,0.314
		c0.688,0.209,1.272,0.468,1.751,0.778c0.479,0.309,0.858,0.643,1.138,1.002c0.279,0.359,0.509,0.698,0.689,1.017l1.616-2.125
		l0.987,0.658c0,0.02-0.159,0.334-0.479,0.943s-0.739,1.422-1.257,2.439c-0.519,1.017-1.123,2.209-1.811,3.576
		c-0.688,1.367-1.407,2.818-2.155,4.354c-0.748,1.537-1.506,3.122-2.274,4.759c-0.768,1.635-1.501,3.241-2.199,4.818
		c1.816-1.038,3.412-2.036,4.788-2.993c1.376-0.958,2.608-1.926,3.695-2.903c1.088-0.977,2.07-1.994,2.948-3.053
		c0.878-1.058,1.727-2.204,2.545-3.441l1.106,0.838c-0.799,1.296-1.659,2.499-2.587,3.605c-0.929,1.106-2.017,2.205-3.263,3.291
		c-1.247,1.087-2.704,2.206-4.369,3.352c-1.667,1.147-3.646,2.411-5.94,3.787c-1.896,4.647-3.723,8.493-5.478,11.536
		c-1.756,3.041-3.416,5.452-4.983,7.228c-1.565,1.775-3.022,3.022-4.369,3.741s-2.559,1.077-3.637,1.077
		c-0.438,0-0.912-0.054-1.421-0.164c-0.509-0.109-0.982-0.325-1.422-0.643c-0.438-0.319-0.804-0.759-1.092-1.317
		s-0.435-1.276-0.435-2.154c0-1.677,0.443-3.332,1.332-4.969c0.888-1.636,2.175-3.261,3.861-4.878
		c1.684-1.616,3.749-3.222,6.194-4.817c2.444-1.596,5.212-3.202,8.305-4.817c0.38-0.859,0.729-1.671,1.048-2.44
		C149.549,114.198,149.848,113.494,150.127,112.856z M132.859,139.642c0.758,0,1.546-0.279,2.363-0.837
		c0.818-0.559,1.647-1.322,2.484-2.29c0.837-0.969,1.666-2.09,2.483-3.367c0.818-1.277,1.626-2.64,2.425-4.084
		c0.798-1.447,1.561-2.928,2.289-4.445c0.728-1.516,1.422-3.003,2.079-4.459c-2.974,1.556-5.512,3.177-7.616,4.864
		c-2.104,1.685-3.825,3.296-5.162,4.833s-2.309,2.923-2.918,4.159c-0.608,1.238-0.912,2.188-0.912,2.844
		c0,0.817,0.179,1.485,0.538,2.005S131.921,139.642,132.859,139.642z M151.683,109.564c0.539-1.018,1.073-2.019,1.602-3.008
		c0.528-0.987,1.077-1.975,1.646-2.963c0.568-0.988,1.176-2,1.824-3.037c0.648-1.037,1.371-2.115,2.17-3.232
		c-0.041-0.3-0.14-0.609-0.299-0.928c-0.159-0.319-0.379-0.613-0.658-0.883c-0.279-0.27-0.639-0.494-1.078-0.674
		c-0.438-0.18-0.957-0.269-1.557-0.269c-0.679,0-1.452,0.09-2.319,0.269c-0.868,0.18-1.781,0.489-2.738,0.928
		c-0.958,0.438-1.933,1.027-2.918,1.764c-0.988,0.738-1.951,1.666-2.89,2.784c-1.377,1.636-2.434,3.267-3.173,4.892
		c-0.737,1.626-1.106,3.108-1.106,4.446c0,1.296,0.328,2.278,0.987,2.947c0.658,0.669,1.557,1.003,2.693,1.003
		c1.198,0,2.47-0.37,3.816-1.107C149.034,111.759,150.367,110.782,151.683,109.564z"/>
</g>
</svg>
