<?xml version="1.0" encoding="utf-8"?>
<!-- Generator: Adobe Illustrator 12.0.0, SVG Export Plug-In . SVG Version: 6.00 Build 51448)  -->
<!DOCTYPE svg PUBLIC "-//W3C//DTD SVG 1.1//EN" "http://www.w3.org/Graphics/SVG/1.1/DTD/svg11.dtd" [
	<!ENTITY ns_svg "http://www.w3.org/2000/svg">
	<!ENTITY ns_xlink "http://www.w3.org/1999/xlink">
]>
<svg  version="1.1" id="Layer_1" xmlns="&ns_svg;" xmlns:xlink="&ns_xlink;" width="209" height="209" viewBox="0 0 209 209"
	 overflow="visible" enable-background="new 0 0 209 209" xml:space="preserve">
<g>
	<circle fill="none" stroke="#BBBDBF" stroke-width="3" cx="104.5" cy="104.5" r="103"/>
	<path stroke="#000000" d="M96.18,53.893c-2.12,1.589-4.107,3.488-5.961,5.696c1.795,1.119,3.312,2.348,4.548,3.688
		c1.236,1.339,2.23,2.701,2.98,4.085c0.751,1.383,1.288,2.752,1.612,4.106c0.324,1.354,0.486,2.605,0.486,3.754
		c0,2.885-0.544,5.395-1.634,7.529c-1.089,2.134-2.524,3.909-4.306,5.322s-3.827,2.465-6.138,3.157s-4.703,1.038-7.176,1.038
		c-2.768,0-5.491-0.309-8.169-0.927c-1.237,2.62-2.576,5.226-4.019,7.816c-1.443,2.591-3.01,5.071-4.703,7.441
		c-1.693,2.369-3.533,4.578-5.52,6.624s-4.122,3.813-6.403,5.299c-2.281,1.487-4.747,2.657-7.396,3.511
		c-2.65,0.854-5.476,1.281-8.479,1.281c-2.915,0-5.608-0.472-8.082-1.414c-2.473-0.941-4.607-2.318-6.403-4.129
		c-1.796-1.811-3.194-4.019-4.195-6.623c-1.001-2.605-1.501-5.586-1.501-8.943c0-4.357,0.743-8.552,2.23-12.585
		c1.487-4.034,3.533-7.802,6.138-11.306c2.605-3.503,5.675-6.683,9.208-9.538c3.533-2.856,7.345-5.299,11.437-7.331
		c4.092-2.032,8.376-3.606,12.851-4.725c4.475-1.119,8.95-1.678,13.425-1.678c3.503,0,6.616,0.287,9.339,0.861
		c2.723,0.574,5.13,1.332,7.22,2.274c1.178-1.03,2.414-1.995,3.709-2.893c1.295-0.897,2.694-1.7,4.195-2.406L96.18,53.893z
		 M68.712,87.675c1.354-2.827,2.694-5.543,4.019-8.148c1.325-2.605,2.671-5.079,4.041-7.419c1.369-2.341,2.79-4.534,4.261-6.58
		c1.472-2.046,3.062-3.938,4.77-5.674c-1.943-0.766-4.056-1.325-6.337-1.678c-2.282-0.353-4.718-0.53-7.309-0.53
		c-3.562,0-7.051,0.427-10.466,1.281c-3.415,0.854-6.705,2.024-9.87,3.511c-3.165,1.486-6.183,3.246-9.053,5.277
		c-2.871,2.031-5.535,4.239-7.993,6.624c-2.458,2.385-4.681,4.879-6.668,7.485s-3.68,5.234-5.078,7.883
		c-1.398,2.649-2.473,5.262-3.224,7.838c-0.751,2.576-1.126,5.027-1.126,7.353c0,2.267,0.412,4.379,1.237,6.337
		c0.824,1.958,1.965,3.658,3.422,5.101c1.457,1.442,3.194,2.576,5.21,3.4s4.232,1.236,6.646,1.236c3.739,0,7.095-0.736,10.068-2.208
		c2.973-1.472,5.726-3.569,8.258-6.293c2.532-2.723,4.931-5.998,7.198-9.825c2.267-3.827,4.578-8.096,6.933-12.807
		c-3.062-1.207-5.902-2.752-8.523-4.637l0.707-1.236c1.414,0.707,2.849,1.376,4.306,2.01C65.599,86.608,67.123,87.175,68.712,87.675
		z M95.208,72.705c0-2.62-0.566-4.858-1.7-6.712c-1.133-1.854-2.716-3.4-4.747-4.637c-2.679,3.474-5.233,7.515-7.662,12.122
		c-2.429,4.607-4.938,9.737-7.529,15.391c0.854,0.147,1.708,0.257,2.561,0.331c0.854,0.074,1.723,0.11,2.605,0.11
		c2.238,0,4.35-0.397,6.337-1.192c1.987-0.795,3.731-1.921,5.233-3.379c1.501-1.457,2.694-3.202,3.577-5.233
		S95.208,75.207,95.208,72.705z"/>
	<path fill="#231F20" stroke="#000000" d="M104.791,89.044c-0.382,0.766-0.92,1.774-1.612,3.025c-0.691,1.251-1.435,2.62-2.23,4.107
		s-1.604,3.047-2.429,4.681s-1.568,3.224-2.23,4.769c-0.663,1.546-1.2,2.995-1.612,4.35s-0.618,2.503-0.618,3.444
		c0,0.854,0.176,1.436,0.53,1.745c0.354,0.309,0.854,0.463,1.501,0.463c1.207,0,2.385-0.397,3.533-1.192s2.289-1.832,3.422-3.113
		c1.133-1.28,2.245-2.744,3.334-4.394c1.089-1.648,2.179-3.312,3.268-4.99l1.59,1.236c-0.854,1.531-1.818,3.165-2.893,4.902
		c-1.075,1.737-2.274,3.349-3.599,4.835c-1.325,1.487-2.782,2.716-4.372,3.688c-1.59,0.972-3.327,1.457-5.211,1.457
		c-1.767,0-3.121-0.529-4.063-1.59c-0.942-1.06-1.413-2.429-1.413-4.106c0-1.972,0.457-4.033,1.369-6.183
		c0.913-2.149,2.053-4.276,3.422-6.381s2.855-4.129,4.46-6.072s3.084-3.709,4.438-5.299L104.791,89.044z M113.049,79.24
		c0,0.589-0.147,1.2-0.441,1.833c-0.295,0.633-0.67,1.2-1.126,1.7c-0.457,0.5-0.964,0.913-1.523,1.236
		c-0.56,0.324-1.119,0.486-1.678,0.486c-0.5,0-0.883-0.184-1.148-0.552c-0.265-0.368-0.397-0.817-0.397-1.347
		c0-0.471,0.088-1.03,0.265-1.678c0.177-0.647,0.442-1.258,0.795-1.833c0.354-0.574,0.78-1.067,1.281-1.479
		c0.5-0.412,1.075-0.618,1.722-0.618c0.618,0,1.148,0.236,1.589,0.707C112.828,78.166,113.049,78.681,113.049,79.24z"/>
	<path fill="#231F20" stroke="#000000" d="M146.521,95.491c0,1.266-0.221,2.554-0.662,3.864s-1.001,2.62-1.678,3.93
		c-0.678,1.31-1.398,2.598-2.164,3.864c-0.766,1.267-1.487,2.487-2.164,3.665s-1.236,2.304-1.678,3.379
		c-0.442,1.074-0.663,2.053-0.663,2.937c0,0.677,0.147,1.133,0.442,1.369c0.294,0.235,0.618,0.353,0.971,0.353
		c1.119,0,2.37-0.552,3.754-1.655c1.384-1.104,2.789-2.495,4.217-4.174c1.429-1.678,2.849-3.503,4.262-5.476
		s2.694-3.842,3.842-5.608l1.59,1.236c-0.235,0.353-0.662,1.052-1.28,2.098c-0.618,1.045-1.384,2.236-2.297,3.576
		c-0.912,1.34-1.936,2.738-3.068,4.195c-1.134,1.457-2.349,2.797-3.644,4.019s-2.628,2.23-3.996,3.024
		c-1.369,0.795-2.745,1.192-4.129,1.192c-0.795,0-1.517-0.132-2.164-0.397c-0.647-0.265-1.2-0.633-1.656-1.104
		s-0.816-1.023-1.082-1.656c-0.265-0.633-0.397-1.303-0.397-2.009c0-1.148,0.258-2.393,0.773-3.731
		c0.515-1.34,1.155-2.717,1.921-4.129c0.766-1.414,1.604-2.834,2.517-4.262c0.913-1.428,1.752-2.79,2.518-4.085
		s1.405-2.495,1.921-3.599c0.515-1.104,0.772-2.054,0.772-2.849c0-0.913-0.243-1.678-0.729-2.296
		c-0.485-0.618-1.17-0.927-2.054-0.927c-0.941,0-2.031,0.39-3.268,1.17s-2.62,1.921-4.151,3.422
		c-1.53,1.501-3.201,3.349-5.012,5.542s-3.775,4.688-5.896,7.484c-1.207,1.619-2.385,3.18-3.532,4.682
		c-0.501,0.647-1.001,1.31-1.502,1.987c-0.5,0.677-1.001,1.347-1.501,2.009c-0.501,0.663-0.972,1.296-1.413,1.899
		c-0.442,0.604-0.839,1.126-1.192,1.567l-3.886-1.59l5.167-7.109c0.736-1.001,1.487-2.076,2.252-3.224
		c0.766-1.148,1.523-2.333,2.274-3.555c0.751-1.222,1.465-2.451,2.142-3.687c0.678-1.237,1.311-2.444,1.899-3.621
		c0.854-1.767,1.442-3.231,1.766-4.394c0.324-1.163,0.486-2.098,0.486-2.804c0-0.795-0.147-1.317-0.441-1.568
		c-0.295-0.25-0.707-0.375-1.236-0.375c-0.56,0-1.2,0.287-1.922,0.861c-0.721,0.574-1.464,1.31-2.229,2.208
		s-1.538,1.914-2.318,3.047c-0.78,1.134-1.523,2.26-2.23,3.378c-0.706,1.119-1.368,2.179-1.987,3.18
		c-0.618,1.001-1.133,1.811-1.545,2.429l-1.59-1.236c1.501-2.355,2.863-4.512,4.085-6.47c1.222-1.958,2.399-3.643,3.532-5.056
		c1.134-1.413,2.237-2.51,3.313-3.29c1.074-0.78,2.215-1.17,3.422-1.17c0.647,0,1.273,0.132,1.877,0.397
		c0.604,0.265,1.134,0.655,1.59,1.17s0.816,1.141,1.082,1.877c0.265,0.736,0.397,1.59,0.397,2.561c0,0.766-0.089,1.561-0.266,2.385
		c1.296-1.266,2.503-2.311,3.621-3.135c1.119-0.824,2.149-1.479,3.092-1.965s1.811-0.832,2.605-1.038s1.516-0.309,2.164-0.309
		c0.559,0,1.207,0.103,1.942,0.309c0.736,0.206,1.428,0.589,2.076,1.148c0.647,0.56,1.199,1.333,1.655,2.318
		C146.293,92.658,146.521,93.931,146.521,95.491z"/>
	<path fill="#231F20" stroke="#000000" d="M171.825,116.83c-1.531,1.03-3.113,1.862-4.747,2.495s-3.202,0.949-4.703,0.949
		c-1.119,0-2.237-0.161-3.356-0.485c-1.118-0.324-2.134-0.861-3.047-1.612c-0.912-0.75-1.656-1.744-2.229-2.98
		c-0.574-1.236-0.861-2.768-0.861-4.593c0-2.207,0.397-4.327,1.192-6.359c0.795-2.031,1.854-3.923,3.179-5.674
		c1.325-1.751,2.842-3.349,4.549-4.792c1.708-1.442,3.467-2.671,5.277-3.687s3.613-1.803,5.409-2.363
		c1.796-0.559,3.43-0.839,4.902-0.839c1.442,0,2.671,0.154,3.687,0.464c1.016,0.309,1.877,0.691,2.584,1.148
		c0.706,0.456,1.266,0.949,1.678,1.479c0.412,0.53,0.751,1.03,1.016,1.501l2.385-3.136l1.457,0.972c0,0.029-0.235,0.493-0.706,1.391
		c-0.472,0.898-1.09,2.098-1.854,3.599c-0.766,1.501-1.656,3.26-2.672,5.277s-2.076,4.158-3.18,6.426
		c-1.104,2.267-2.223,4.607-3.356,7.021c-1.133,2.414-2.215,4.784-3.245,7.11c2.679-1.531,5.034-3.003,7.065-4.416
		s3.849-2.841,5.453-4.283c1.604-1.443,3.055-2.944,4.35-4.505c1.296-1.56,2.547-3.253,3.754-5.078l1.634,1.236
		c-1.178,1.913-2.45,3.688-3.819,5.321s-2.974,3.253-4.813,4.857s-3.989,3.253-6.447,4.946c-2.458,1.692-5.38,3.555-8.766,5.586
		c-2.797,6.859-5.491,12.534-8.081,17.023c-2.591,4.489-5.042,8.045-7.354,10.665c-2.311,2.62-4.46,4.46-6.447,5.52
		c-1.986,1.06-3.775,1.59-5.365,1.59c-0.647,0-1.347-0.081-2.098-0.243c-0.75-0.162-1.449-0.479-2.098-0.949
		c-0.647-0.471-1.185-1.119-1.611-1.943s-0.641-1.884-0.641-3.179c0-2.474,0.655-4.917,1.965-7.331
		c1.311-2.414,3.209-4.813,5.697-7.198c2.487-2.385,5.534-4.754,9.141-7.109s7.691-4.725,12.255-7.109
		c0.559-1.267,1.074-2.466,1.545-3.6C170.972,118.811,171.413,117.772,171.825,116.83z M146.345,156.354
		c1.119,0,2.282-0.412,3.489-1.236s2.429-1.951,3.665-3.379s2.458-3.084,3.665-4.968s2.399-3.894,3.577-6.027
		c1.178-2.135,2.304-4.32,3.378-6.558c1.074-2.238,2.098-4.431,3.069-6.58c-4.387,2.296-8.133,4.688-11.239,7.176
		c-3.105,2.487-5.645,4.865-7.617,7.132s-3.407,4.313-4.306,6.138c-0.897,1.826-1.347,3.225-1.347,4.195
		c0,1.207,0.265,2.193,0.795,2.959S144.961,156.354,146.345,156.354z M174.121,111.973c0.795-1.502,1.583-2.98,2.363-4.438
		c0.779-1.457,1.589-2.915,2.429-4.372c0.839-1.458,1.736-2.952,2.693-4.482s2.024-3.121,3.201-4.769
		c-0.059-0.442-0.206-0.898-0.441-1.369s-0.56-0.905-0.972-1.303s-0.941-0.729-1.589-0.994c-0.648-0.265-1.413-0.397-2.297-0.397
		c-1.001,0-2.142,0.133-3.422,0.397c-1.281,0.265-2.628,0.721-4.041,1.369c-1.413,0.647-2.849,1.516-4.306,2.605
		s-2.878,2.458-4.262,4.107c-2.031,2.414-3.591,4.821-4.681,7.219c-1.089,2.4-1.634,4.586-1.634,6.559
		c0,1.913,0.485,3.363,1.457,4.35s2.297,1.479,3.975,1.479c1.767,0,3.644-0.545,5.631-1.634
		C170.213,115.211,172.179,113.769,174.121,111.973z"/>
</g>
</svg>
